<svg width="76" height="28" viewBox="0 0 76 28" fill="none" xmlns="http://www.w3.org/2000/svg" role="img" aria-labelledby="title">
  <title id="title">AWS</title>
  <rect width="76" height="28" fill="#0F172A"/>
  <path d="M12.2 10.1L8.7 19H11.1L11.7 17.3H15.2L15.8 19H18.3L14.8 10.1H12.2ZM12.3 15.5L13.4 12.3L14.6 15.5H12.3Z" fill="#FF9900"/>
  <path d="M19.3 10.1H21.6L22.9 16L24.5 10.1H26.6L28.2 16L29.5 10.1H31.8L29.4 19H27.1L25.6 13.4L24 19H21.7L19.3 10.1Z" fill="#FF9900"/>
  <path d="M34 16.2C34.6 16.8 35.6 17.3 36.8 17.3C37.7 17.3 38.1 17 38.1 16.6C38.1 16.1 37.5 16 36.5 15.8C35.1 15.5 33.2 15.2 33.2 12.9C33.2 11.3 34.5 10 36.6 10C38 10 39.2 10.4 40.1 11.2L38.9 12.8C38.2 12.2 37.3 11.9 36.4 11.9C35.7 11.9 35.4 12.2 35.4 12.6C35.4 13 36 13.1 37 13.3C38.4 13.6 40.3 14 40.3 16.1C40.3 17.8 39.1 19.2 36.7 19.2C35 19.2 33.8 18.6 32.9 17.8L34 16.2Z" fill="#FF9900"/>
  <path d="M9.7 22.1C18.1 25.8 31.5 25.4 39.2 21.5" stroke="#FF9900" stroke-width="1.5" stroke-linecap="round"/>
  <path d="M36.2 20.8L40.5 20.4L38.3 24" stroke="#FF9900" stroke-width="1.5" stroke-linecap="round" stroke-linejoin="round"/>
  <text x="52" y="18" text-anchor="middle" fill="#FFFFFF" font-family="Verdana, Geneva, DejaVu Sans, sans-serif" font-size="10" font-weight="700">AWS</text>
</svg>
