<svg width="64" height="28" viewBox="0 0 64 28" fill="none" xmlns="http://www.w3.org/2000/svg" role="img" aria-labelledby="title">
  <title id="title">AWS</title>
  <rect width="64" height="28" fill="#0F172A"/>
  <path d="M14.7 18.7H9.6C7.1 18.7 5.1 16.8 5.1 14.4C5.1 12.2 6.7 10.4 8.8 10.1C9.7 8.1 11.7 6.8 14 6.8C16.9 6.8 19.3 8.9 19.7 11.7C21.8 12 23.4 13.7 23.4 15.9C23.4 18.2 21.5 20 19.2 20H14.7V18.7Z" fill="#FF9900"/>
  <path d="M10 22C13.8 23.5 19.1 23.2 22.4 21.2" stroke="#FF9900" stroke-width="1.4" stroke-linecap="round"/>
  <path d="M20.3 20.8L23.5 20.4L21.8 23.1" stroke="#FF9900" stroke-width="1.4" stroke-linecap="round" stroke-linejoin="round"/>
  <text x="43" y="18" text-anchor="middle" fill="#FFFFFF" font-family="Verdana, Geneva, DejaVu Sans, sans-serif" font-size="10" font-weight="700">AWS</text>
</svg>
