<svg width="96" height="28" viewBox="0 0 96 28" fill="none" xmlns="http://www.w3.org/2000/svg" role="img" aria-labelledby="title">
  <title id="title">OpenAI</title>
  <rect width="96" height="28" fill="#0F172A"/>
  <g transform="translate(9 6)" stroke="#FFFFFF" stroke-width="1.65" stroke-linecap="round" stroke-linejoin="round">
    <path d="M8 1.2C10.6 1.2 12.8 3 13.4 5.4"/>
    <path d="M13.4 5.4C15.5 6.7 16.2 9.5 15 11.7"/>
    <path d="M15 11.7C13.8 14 11.1 15.1 8.8 14.4"/>
    <path d="M8.8 14.4C7.1 16.1 4.2 16.2 2.3 14.6"/>
    <path d="M2.3 14.6C0.2 12.9 -0.1 10 1.2 7.9"/>
    <path d="M1.2 7.9C0.5 5.5 1.8 3 4.1 2"/>
    <path d="M4.1 2C5.1 1.4 6.5 1.2 8 1.2"/>
    <path d="M4.4 5.7L8.1 3.6L11.8 5.8V10.2L8 12.4L4.2 10.1V5.9"/>
    <path d="M4.4 5.7L8 7.9L11.8 5.8"/>
    <path d="M8 7.9V12.4"/>
  </g>
  <text x="62" y="18" text-anchor="middle" fill="#FFFFFF" font-family="Verdana, Geneva, DejaVu Sans, sans-serif" font-size="10" font-weight="700">OPENAI</text>
</svg>
